<svg width="87" height="34" viewBox="0 0 87 34" fill="none" xmlns="http://www.w3.org/2000/svg">
<path d="M26.9959 3.33488C20.532 -2.05339 11.1737 -0.495972 5.37554 5.03095C0.820759 9.6519 -1.05586 16.4096 0.585463 22.6962C2.37026 29.5431 8.83036 34.0083 15.9045 33.5278C23.2522 33.0283 29.6224 27.5793 31.5679 20.588C33.2475 14.5559 31.9811 7.49052 26.9959 3.33488ZM4.0862 26.9506C-1.47098 20.9716 0.0804396 12.4989 5.48266 7.0195C9.79258 2.90945 16.004 0.907599 21.8462 2.64354C27.9294 4.45166 32.5206 10.5009 31.7267 16.9167C30.1829 29.3779 13.1843 36.7338 4.08811 26.9487L4.0862 26.9506Z" fill="#C3ECBC"/>
<path d="M27.3497 3.66709C21.5438 -0.93298 12.9852 4.04694 8.59686 8.25956C4.35772 12.531 1.22428 18.4321 2.12911 24.5877C2.97656 30.352 8.30417 32.445 13.6069 31.1573C20.4133 29.505 26.4104 23.8546 29.0006 17.473C30.705 13.2718 31.365 6.84839 27.3497 3.66709ZM17.9494 27.7424C14.3319 29.8316 9.02536 31.2599 5.49211 28.1849C0.130057 23.5203 4.78814 15.0704 8.32522 10.8331C11.6997 6.98514 16.6122 3.39929 21.9628 3.57022C23.9867 3.6348 25.9685 4.36412 27.3593 5.89115C29.408 8.1418 29.4329 11.1636 28.6907 13.965C27.1794 19.6591 22.9939 24.827 17.9494 27.7405V27.7424Z" fill="#C3ECBC"/>
<path d="M26.7302 4.90748C25.0334 4.27122 22.69 5.49056 21.0659 6.41171C17.9229 8.19324 15.0688 10.6034 12.469 13.1466C10.1391 15.4485 7.9487 17.9442 6.18877 20.6734C5.12325 22.322 3.88173 24.4055 3.87599 26.2915C3.87216 27.8394 4.64309 28.7074 6.12564 28.9448C7.82436 29.2183 9.92097 28.0939 11.4686 27.2013C14.1467 25.6515 16.6183 23.6496 18.8928 21.5186C21.3529 19.2129 23.6542 16.683 25.5652 13.9291C26.7953 12.1589 28.0942 10.0906 28.4156 8.0356C28.6795 6.33764 28.1956 5.45637 26.7283 4.90558L26.7302 4.90748ZM27.2525 6.36423C27.3519 6.9777 27.1473 7.83997 26.6805 8.88268C26.6767 8.88838 26.6767 8.89408 26.6728 8.89977C26.1563 9.97097 25.4505 11.027 24.779 11.9861C21.5729 16.5691 17.2687 20.852 12.7656 24.2289C11.13 25.4558 9.34517 26.679 7.52785 27.4216C6.69762 27.7274 6.00321 27.8489 5.49054 27.7616C5.22272 27.7141 5.00464 27.6115 4.84013 27.4463C3.32888 25.9326 7.05343 19.8397 13.1558 13.836C19.2601 7.83428 25.4313 4.19525 26.9407 5.70898C27.1071 5.87421 27.2085 6.09453 27.2525 6.36423Z" fill="#C3ECBC"/>
<path d="M50.646 19.756C50.646 13.7543 54.449 9.9519 59.7345 9.9519C65.02 9.9519 68.2606 13.7581 68.3352 18.8273H54.0358V19.1596C54.0358 23.6325 56.098 27.0626 60.4079 27.0626C63.9698 27.0626 65.9191 24.7511 66.669 21.8072H68.4098C67.5471 26.0578 64.9072 29.45 59.6216 29.45C54.3361 29.45 50.646 24.7283 50.646 19.7579V19.756ZM64.9454 16.8482C64.6088 13.9024 62.8469 11.667 59.7345 11.667C56.8096 11.667 54.8603 13.6802 54.2615 16.8482H64.9454Z" fill="#C3ECBC"/>
<path d="M71.0059 23.7901V10.29H74.2923V13.9404C75.5186 11.5834 77.2727 9.64233 80.9495 9.64233C84.6262 9.64233 87.0002 12.8882 87.0002 16.8672V28.884H83.7137V17.551C83.7137 14.1664 82.411 11.9766 79.7692 11.9766C76.6663 11.9766 74.6749 14.7134 74.2923 17.3762V28.8821H71.0059V23.7863V23.7901Z" fill="#C3ECBC"/>
<path d="M43.6195 28.8857V7.27567H36.6602V5.36499H53.8348V7.27567H46.8697V28.8857H43.6215H43.6195Z" fill="#C3ECBC"/>
</svg>
